<svg width="34" height="34" viewBox="0 0 34 34" fill="none" xmlns="http://www.w3.org/2000/svg">
<path d="M14.9092 2.25417C15.4077 0.958167 15.6569 0.310164 16.0167 0.122186C16.3286 -0.0407381 16.7004 -0.0407381 17.0123 0.122186C17.3721 0.310164 17.6213 0.958167 18.1198 2.25417L20.2233 7.72349C20.7432 9.07512 21.0031 9.75094 21.4073 10.3194C21.7656 10.8232 22.2058 11.2634 22.7096 11.6217C23.2781 12.0259 23.9539 12.2858 25.3055 12.8057L30.7748 14.9092C32.0708 15.4077 32.7188 15.6569 32.9068 16.0167C33.0697 16.3286 33.0697 16.7004 32.9068 17.0123C32.7188 17.3721 32.0708 17.6213 30.7748 18.1198L25.3055 20.2233C23.9539 20.7432 23.2781 21.0031 22.7096 21.4073C22.2058 21.7656 21.7656 22.2058 21.4073 22.7096C21.0031 23.2781 20.7432 23.9539 20.2233 25.3055L18.1198 30.7748C17.6213 32.0708 17.3721 32.7188 17.0123 32.9068C16.7004 33.0697 16.3286 33.0697 16.0167 32.9068C15.6569 32.7188 15.4077 32.0708 14.9092 30.7748L12.8057 25.3055C12.2858 23.9539 12.0259 23.2781 11.6217 22.7096C11.2634 22.2058 10.8232 21.7656 10.3194 21.4073C9.75094 21.0031 9.07512 20.7432 7.72349 20.2233L2.25417 18.1198C0.958168 17.6213 0.310164 17.3721 0.122186 17.0123C-0.0407381 16.7004 -0.0407381 16.3286 0.122186 16.0167C0.310164 15.6569 0.958168 15.4077 2.25418 14.9092L7.72348 12.8057C9.07512 12.2858 9.75094 12.0259 10.3194 11.6217C10.8232 11.2634 11.2634 10.8232 11.6217 10.3194C12.0259 9.75094 12.2858 9.07512 12.8057 7.72349L14.9092 2.25417Z" fill="white"/>
</svg>
